<svg xmlns="http://www.w3.org/2000/svg" width="11" height="17" fill="none" xmlns:v="https://vecta.io/nano"><path d="M3.011 16.196c-1.212 0-2.194-.982-2.194-2.194s.983-2.195 2.194-2.195h1.567c.346 0 .627.281.627.627v1.567c0 1.212-.983 2.194-2.194 2.194zM8.497 5.224H6.93c-.346 0-.627-.281-.627-.627V1.462c0-.346.281-.627.627-.627h1.567c1.212 0 2.194.983 2.194 2.194s-.983 2.194-2.194 2.194zM3.011.835h1.567c.346 0 .627.281.627.627v3.135c0 .346-.281.627-.627.627H3.011C1.799 5.224.816 4.242.816 3.03S1.799.835 3.011.835zm0 5.486h1.567c.346 0 .627.281.627.627v3.135c0 .346-.281.627-.627.627H3.011c-1.212 0-2.194-.983-2.194-2.194s.983-2.194 2.194-2.194zm5.486 0c-.582 0-1.14.231-1.552.643s-.643.97-.643 1.552.231 1.14.643 1.552.97.643 1.552.643 1.14-.231 1.552-.643.643-.97.643-1.552-.231-1.14-.643-1.552-.97-.643-1.552-.643z" fill="#fff"/></svg>