<svg xmlns="http://www.w3.org/2000/svg" width="18" height="18" fill="none" xmlns:v="https://vecta.io/nano"><path d="M11.941 17.181c-.426.083-.577-.18-.577-.405l.011-2.311c0-.787-.269-1.3-.57-1.561 1.87-.209 3.832-.921 3.832-4.158 0-.92-.325-1.672-.863-2.261.087-.213.375-1.07-.084-2.23 0 0-.704-.227-2.305.863-.67-.187-1.389-.28-2.101-.284-.714.004-1.431.097-2.101.284-1.603-1.09-2.308-.863-2.308-.863-.456 1.16-.168 2.017-.082 2.23-.537.589-.864 1.341-.864 2.261 0 3.229 1.959 3.951 3.823 4.164-.24.211-.457.582-.533 1.127-.478.216-1.694.588-2.443-.7 0 0-.443-.809-1.285-.868 0 0-.82-.01-.058.512 0 0 .551.259.931 1.233 0 0 .492 1.639 2.827 1.13l.012 1.433c0 .224-.153.484-.573.406C3.295 16.068.891 12.91.891 9.188.891 4.533 4.648.761 9.283.761s8.393 3.772 8.393 8.427a8.43 8.43 0 0 1-5.735 7.993z" fill="#fff"/></svg>