<svg xmlns="http://www.w3.org/2000/svg" width="17" height="17" fill="none" xmlns:v="https://vecta.io/nano"><path d="M16.572 10.447v5.862h-3.398V10.84c0-1.373-.491-2.311-1.721-2.311-.939 0-1.497.631-1.743 1.243-.089.218-.112.522-.112.828v5.708H6.199V6.087h3.399v1.448c-.007.011-.017.023-.023.034h.023v-.034c.452-.695 1.257-1.689 3.063-1.689 2.236 0 3.912 1.461 3.912 4.6zM.922 16.308H4.32V6.087H.922v10.221zM4.421 2.619a1.75 1.75 0 0 1-1.749 1.749A1.75 1.75 0 0 1 .922 2.619 1.75 1.75 0 0 1 2.671.87a1.75 1.75 0 0 1 1.749 1.749z" fill="#fff"/></svg>